<?xml version="1.0" encoding="utf-8"?>
<!-- Generator: Adobe Illustrator 22.1.0, SVG Export Plug-In . SVG Version: 6.00 Build 0)  -->
<svg version="1.1" id="Layer_1" xmlns="http://www.w3.org/2000/svg" xmlns:xlink="http://www.w3.org/1999/xlink" x="0px" y="0px"
	 viewBox="0 0 607 32.6" style="enable-background:new 0 0 607 32.6;" xml:space="preserve">
<style type="text/css">
	.st0{fill:#231F20;}
	.st1{fill:#007361;}
	.st2{fill:#E1C4AC;}
	.st3{fill:#A41E22;}
</style>
<title>Asset 1</title>
<g id="Layer_2_1_">
	<g id="new">
		<path class="st0" d="M59.3,2.2c0.3,0,0.5-0.1,0.7-0.2c0-0.3-0.1-0.3-0.5-0.3c-0.8,0-1.3,0.1-2.1,0.1S56,1.7,55.2,1.7
			c-0.4,0-0.4,0.1-0.4,0.4s0.8,0.1,1.2,1.1c0.2,0.8,0.2,1.6-0.1,2.3l-6.1,16.7l-2.6-7.4l-1-2.7c0,0-0.2,0.1,0.6-2.2l1.4-4.3
			c0.7-2.1,1.4-3.2,2.3-3.2c1.1,0,1.1-0.7,0.3-0.7c-0.9,0-1.4,0-2.1,0c-0.7,0-1.2,0-2.1,0c-0.3,0-0.7,0.1-0.6,0.3s0.5,0.2,0.9,0.4
			c0.7,0.7,0.9,1.8,0.5,2.8l-1.7,5.4l-1.9-4.9c-0.4-0.9-0.9-3,0-3.2c0.9-0.2,0.8-0.6,0.2-0.6c-1,0-1.6,0.1-2.6,0.1s-1.9-0.1-3-0.1
			c-0.2,0-0.6,0-0.5,0.5s0.6,0.2,0.9,0.3c1,0.7,1.7,1.8,2,3.1l2.8,7.9c0.5,1.4,0.5,0.9,0.1,2.1l-2.4,6.6L35.3,5
			c-0.5-1.3-0.7-2.2,0.3-2.7c0.4-0.2,0.6-0.3,0.6-0.4s0.1-0.4-0.5-0.3c-1.1,0-1.7,0.1-2.8,0.1c-1,0-1.9-0.1-3-0.1
			c-0.3,0-0.4,0.2-0.4,0.4c0,0.3,0.9,0.1,1.6,1c0.6,0.8,1,1.7,1.4,2.6l7.2,20.7c0.1,0.3,0.2,0.9,0.6,0.9s0.4-0.7,0.5-1l3.8-10.4
			l3.7,9.9c0.2,0.4,0.4,1.5,0.8,1.5c0.4,0,0.4-0.5,0.6-1l7.1-20.4C57.4,4.2,58.1,2.4,59.3,2.2z"/>
		<path class="st0" d="M138.6,10.4c-3.9,0-7,4-7,8.6c-0.1,2,0.5,4,1.7,5.6c-0.7,0.6-1.7,0.9-2.6,0.8c-1.3,0-2.1-0.8-2.1-2.4V12.9
			h4.1c0.3,0,0.8-1.8,0.8-1.8c0-0.1,0.1-0.4,0.1-0.6s-0.2-0.4-0.4,0c-0.3,0.4-0.7,0.7-1.2,0.7h-3.4c0-2.9,0-4.2-0.4-4.2
			c-0.4,0-0.4,0.1-0.8,1.4c-0.6,1.4-1.8,2.6-3.2,3.2c-0.5,0.1-1,0.1-1.5,0c-1.4-0.8-3-1.2-4.6-1.3c-3,0-5.4,2.5-5.4,5.5
			c0,0,0,0.1,0,0.1c0,1.7,0.7,3.2,2.1,4.2c-1,0.7-1.6,1.8-1.7,3.1c0,0.9,0.5,1.8,1.3,2.2c-0.4,0.2-0.8,0.4-1.2,0.8
			c-0.9-0.3-2.1-0.1-2.1-2.3v-6.2c0-2.8-0.9-7-5.1-7c-3,0-4.6,2.9-4.5,2.4v-2.1c0-0.4-0.2-0.6-0.4-0.6c-0.7,0-0.9,1.2-3.5,1.9
			c-0.2,0-0.5,0.1-0.5,0.4c0,0.8,2.1-0.9,2.1,2.1v9.3c0.1,1-0.6,1.9-1.6,2c-0.1,0-0.2,0-0.3,0h-0.4c-0.7-0.1-1.8-0.4-1.8-1.6V10.9
			c0-0.4-0.2-0.6-0.4-0.6c-0.7,0-1.2,1.3-3.2,2c-0.2,0-0.4,0.1-0.4,0.3c0,0.8,1.8-0.7,1.7,2.1v8.8c0.1,2.2-1,2.5-1.7,2.5
			s-1.5-0.4-1.5-1.7V18c0-3.2-1.2-7.4-5.2-7.4c-1.8,0.1-3.4,0.9-4.5,2.3V2.2c0-0.4-0.2-0.6-0.4-0.6c-0.5,0-1.3,1.4-3.6,2
			c-0.2,0-0.7,0.1-0.7,0.3c0,0.8,2.4-0.4,2.4,2.1v18.3c0,1.8-1.6,1.6-1.9,2.2c0,0.2,0,0.3,0.2,0.4c0,0,0.1,0,0.1,0
			c0.5,0,1.9-0.2,2.8-0.2s2.6,0.2,3.2,0.2c0.4,0,0.5-0.1,0.5-0.5c-0.3-0.6-2.8,0.3-2.8-2.9v-7.9c0.3-1.8,1.8-3.3,3.7-3.4
			c1.1,0,3.8,0.9,3.8,5.5v6.8c0,1.4-1.4,1.5-1.5,1.9s0.2,0.4,0.5,0.4c0.3,0,1.4-0.2,2.6-0.2c0.7,0,1.3,0,1.8,0.1c0.4,0,0.8,0,1.2,0
			c0.3,0,1.2-0.1,2.2-0.1c1,0,1.8,0.1,2.4,0.1h1.4c0.4,0,1-0.1,2.7-0.1c1.7,0,2.5,0.1,3,0.1c0.5,0,1-0.2,0.7-0.5
			c-0.3-0.3-2.8,0.1-2.8-2.5v-8.5c0.4-1.8,2-3,3.8-2.9c2.5,0,3.7,2.8,3.7,4.7v7c0,2.4-1,1.9-1.4,2.4c-0.2,0.3,0.2,0.4,0.6,0.4
			c0.4,0,1.1-0.1,2.3-0.1c0.8,0,1.5,0,2.3,0.1c-0.4,0.5-0.6,1.1-0.6,1.7c-0.2,3,3.6,4.2,6.7,4.1c6.2-0.1,8-4.4,6.7-6.7
			s-4.2-2.3-6.9-2.2c-5.1,0-4.2-3.1-2.1-3c0.6,0.1,1.3,0.2,1.9,0.2c2.9,0.2,5.5-2,5.7-5c0-0.1,0-0.2,0-0.3c0-0.9-0.2-1.8-0.6-2.6
			h2.9v9.2c0,4.2,2,4.9,3.5,4.9c1.6,0,3-0.7,3.9-2c1.3,1.4,3.1,2.1,5,2c3.9,0,6.8-3.6,6.8-8.2C145.4,11.8,140.9,10.4,138.6,10.4z
			 M115.8,25.6c0.3,0,0.3,0.1,3.2,0.2s4,0.9,4.2,1.7c0.3,1.4-0.6,4.3-4.9,4c-1.4,0.1-2.8-0.6-3.7-1.7
			C113.7,28.4,114.5,25.7,115.8,25.6z M118.3,20c-2.5,0-3.4-2.4-3.4-4.7s0.7-4.3,3.2-4.3c2.5,0,3.6,2.6,3.6,4.9S120.7,20.1,118.3,20
			L118.3,20z M138.8,25.9c-3.7,0-5.1-4.5-5.1-8.3c0-3.2,1.3-6.2,4.3-6.2c3.7,0,5.1,4,5.1,7.9C143.2,24.1,141.5,25.9,138.8,25.9
			L138.8,25.9z"/>
		<path class="st0" d="M158.9,23.8v-6.2c0-2.8-0.9-7-5.1-7c-3.1,0-4.6,2.9-4.6,2.4v-2.1c0-0.4-0.2-0.6-0.4-0.6c-0.7,0-1.3,1.2-3.7,2
			c-0.2,0-0.6,0-0.6,0.3c0,0.8,2.5-1,2.4,2.1v9.3c0,2.4-1.6,1.9-2,2.5c-0.2,0.3,0.3,0.4,0.7,0.4c0.4,0,1-0.2,2.7-0.2
			c1.7,0,2.5,0.2,3,0.2c0.5,0,1-0.2,0.7-0.5c-0.3-0.3-2.8,0.1-2.8-2.5v-8.6c0.4-1.7,1.9-3,3.7-2.9c2.5,0,3.7,2.8,3.7,4.7v7
			c0,2.8-1,1.9-1.4,2.4c-0.2,0.3,0.2,0.4,0.6,0.4c0.4,0,1.1-0.2,2.3-0.2c1.5,0,2.2,0.1,2.6,0.1c0.4,0,0.9-0.2,0.5-0.5
			C160.5,25.6,158.8,26.6,158.9,23.8z"/>
		<path class="st0" d="M93.8,9.2c0.4,0,1.3-1.4,1.3-1.9s-0.9-1.9-1.3-1.9c-0.4,0-1.3,1.6-1.3,1.9C92.5,7.6,93.5,9.2,93.8,9.2z"/>
		<path class="st0" d="M72.8,17.6c-0.6-0.3-1.5-0.8-2-1.1c-2-1.1-2.8-1.8-2.8-2.8c-0.1-1.3,0.9-2.5,2.2-2.5c0.2,0,0.3,0,0.5,0
			c3.1,0,3.5,3.4,3.8,3.4c0.3,0,0.3-0.4,0.3-1.5c0-0.6,0-1.2-0.2-1.8c-0.4-0.6-2.5-0.9-3.1-0.9h-0.7h-0.3c-2.2-0.2-4,1.4-4.2,3.6
			c0,0.2,0,0.5,0,0.7c0,2.7,3.2,4.2,4.9,5.2c1.3,0.7,2.8,1.4,2.7,3.1c0.1,1.7-1.2,3.1-2.9,3.1c-0.1,0-0.2,0-0.3,0
			c-3.8-0.1-3.3-4.9-4-4.9c-0.5,0-0.4,1.2-0.4,1.8c0,0.6,0,1.2,0,1.7s-0.3,0.8-0.7,0.9c-1.5,0.1-1.1-2.3-1.1-3.6v-7.8
			c-0.1-2.4-1.9-3.9-4.7-3.9c-3.8,0-6.4,4.6-5.2,6.1c0.3,0.3,1.5-1,1.6-1c0,0,0.1-0.1,0.1-0.2c0-1.8,1.2-3.3,2.9-3.7
			c1.9-0.2,2.9,1.3,2.9,3.2v2.5c-7.3,1.5-8.4,3.9-8.4,5.9c-0.1,2,1.4,3.7,3.4,3.9c0.2,0,0.3,0,0.5,0c1.8-0.1,3.6-0.8,4.8-2.2
			c0.2,1.2,1.3,2,2.4,2c0.4,0,0.5,0.1,1.8-0.5c0.3-0.1,0.6-0.1,0.9,0c1,0.4,2.1,0.7,3.2,0.7c2.7-0.1,4.8-2.4,4.7-5.1
			C75.7,20.2,75.2,19.1,72.8,17.6z M62.6,22.9c-0.1,1.7-1.5,3-3.2,3.1c-1.7,0-2.8-1.1-2.8-3.2c0-3.3,4-3.9,6-4.5L62.6,22.9z"/>
		<path class="st0" d="M287.6,13.2c-0.9-0.4-2.2-1.3-2.9-1.6c-2.9-1.7-4-2.8-4.1-4.3c0-2.2,1.8-4.1,4.1-4.1c0.1,0,0.2,0,0.3,0
			c2.4,0,4.3,1.4,5.1,4.5c0.1,0.3,0.4,1.1,0.7,1.1c0.3,0,0.3-0.3,0.3-0.5l-0.4-4.9c0-0.4-0.2-0.5-0.3-0.5s-0.4,0.4-0.7,0.4
			c-1.4-0.9-3-1.4-4.6-1.3c-0.2,0-0.3,0-0.5,0c-3.2,0-6.2,2.1-6.1,6.5c0.1,4.1,4.7,6.4,7.1,8c1.8,1.1,3.7,2.8,3.7,4.8
			c-0.1,3-2,4.9-4.3,4.8c-5.6-0.1-4.8-7.4-5.8-7.4c-0.7,0-0.5,1.8-0.5,2.8c-0.1,1.5-0.1,3.1,0.2,4.6c0.1,0.1,0.3,0,0.9,0
			c1.1,0,2.4,1.3,5.6,1.3c3.6,0,6.5-3.3,6.5-7.6C291.9,17.2,291.1,15.5,287.6,13.2z"/>
		<path class="st0" d="M463.2,9.2c0.4,0,1.3-1.4,1.3-1.9s-0.9-1.9-1.3-1.9s-1.3,1.6-1.3,1.9C461.9,7.6,462.8,9.2,463.2,9.2z"/>
		<path class="st0" d="M479.9,23.8v-6.2c0-2.8-0.9-7-5.1-7c-3,0-4.6,2.9-4.5,2.4v-2.1c0-0.4-0.2-0.6-0.4-0.6c-0.7,0-1.3,1.2-3.7,2
			c-0.2,0-0.6,0-0.6,0.3c0,0.8,2.5-1,2.4,2.1v9.3c0,1.7-0.9,1.9-1.5,2.1c0,0-0.1,0-0.1,0c-0.6,0-2-0.3-2-1.6V10.9
			c0-0.4-0.2-0.6-0.4-0.6c-0.7,0-1.2,1.3-3.2,2c-0.2,0-0.4,0.1-0.4,0.3c0,0.8,1.8-0.7,1.7,2.1v8.8c0,2.3-1.2,2.5-1.8,2.5
			c-1,0-0.8,0.1-0.8,0.4c0,0.3,0.6,0.4,1.6,0.4c0.3,0,1.2-0.1,2.2-0.1c1.3,0,2.2,0.2,2.9,0.2c0.4,0,1.4-0.2,3.1-0.2
			c1.7,0,2.4,0.2,3,0.2c0.5,0,1-0.2,0.7-0.5c-0.3-0.3-2.8,0.1-2.8-2.5v-8.6c0.4-1.7,1.9-3,3.7-2.9c2.5,0,3.7,2.8,3.7,4.7v7
			c0,2.8-1,1.9-1.4,2.4c-0.2,0.3,0.2,0.4,0.6,0.4c0.4,0,1.1-0.2,2.3-0.2c1.5,0,2.2,0.1,2.6,0.1c0.4,0,0.9-0.2,0.5-0.5
			C481.4,25.6,479.9,26.6,479.9,23.8z"/>
		<path class="st0" d="M499.7,9.2c0.4,0,1.3-1.4,1.3-1.9s-0.9-1.9-1.3-1.9s-1.3,1.5-1.3,1.9S499.4,9.2,499.7,9.2z"/>
		<path class="st0" d="M516.5,23.8v-6.2c0-2.8-0.9-7-5.1-7c-3,0-4.6,2.9-4.5,2.4v-2.1c0-0.4-0.2-0.6-0.4-0.6c-0.7,0-1.3,1.2-3.7,2
			c-0.2,0-0.6,0-0.6,0.3c0,0.8,2.5-1,2.4,2.1v9.3c0,1.7-0.9,1.9-1.5,2.1c0,0-0.1,0-0.1,0c-0.6,0-2-0.3-2-1.6V10.9
			c0-0.4-0.2-0.6-0.4-0.6c-0.7,0-1.2,1.3-3.2,2c-0.2,0-0.4,0.1-0.4,0.3c0,0.8,1.8-0.7,1.7,2.1v8.8c0.1,2.3-1.2,2.5-1.8,2.5
			c-1,0-0.8,0.1-0.8,0.4c0,0.3,0.6,0.4,1.7,0.4c0.3,0,1.2-0.1,2.2-0.1c1.3,0,2.3,0.2,2.9,0.2c0.4,0,1.4-0.2,3.1-0.2s2.5,0.2,3,0.2
			c0.5,0,1-0.2,0.7-0.5c-0.3-0.3-2.8,0.1-2.8-2.5v-8.6c0.4-1.7,1.9-3,3.7-2.9c2.5,0,3.7,2.8,3.7,4.7v7c0,2.8-1,1.9-1.4,2.4
			c-0.2,0.3,0.2,0.4,0.6,0.4s1.1-0.2,2.3-0.2c1.5,0,2.2,0.1,2.6,0.1s0.9-0.2,0.5-0.5C518,25.6,516.5,26.6,516.5,23.8z"/>
		<path class="st0" d="M547.2,23.1c-0.4,0-1.3,1.6-1.3,2c0,0.4,0.9,1.9,1.3,1.9c0.4,0,1.3-1.5,1.3-1.9
			C548.5,24.6,547.6,23.1,547.2,23.1z"/>
		<path class="st0" d="M588.1,24.5V11.3c0-0.7-0.4-0.9-0.5-0.9c-0.4,0-0.7,0.1-1.1,0.2c-0.5,0.2-1,0.3-1.6,0.3c-0.2,0-1-0.1-0.9,0.3
			c0.1,0.4,1.9,0.2,1.9,1.5v9.5c-0.1,1.8-1.5,3.2-3.2,3.5c-0.4,0-2.9-0.3-2.9-4.4v-9.9c0-0.7-0.4-0.9-0.5-0.9
			c-0.4,0-0.7,0.1-1.1,0.2c-0.5,0.2-1,0.3-1.6,0.2c-0.5,0-1-0.1-0.9,0.3c0.1,0.4,1.9,0,1.9,1.5v9.1c0,3.3,2,5.2,4.3,5.2
			c1.6,0.2,3.2-0.7,3.9-2.2h0.1v1.6c0,0.2,0,0.6,0.3,0.6s0.7-0.4,1-0.5c0.5-0.3,1-0.5,1.5-0.5c0.5,0,1-0.3,1-0.6
			C589.6,24.8,588.1,25.5,588.1,24.5z"/>
		<path class="st0" d="M569.5,10.4c-3.9,0-7,4-7,8.6c-0.1,1.8,0.4,3.6,1.4,5.1c-1,0.7-2.7,1.4-6,1.4c-2.6,0-2.3-0.9-2.3-3.1V4.9
			c0-3.2,2.4-2.3,2.5-2.9s-0.3-0.3-0.7-0.3s-1.3,0.2-3,0.2c-1.5,0-2.8-0.1-3.5-0.1c-0.4,0-0.8,0.1-0.6,0.4c0.3,0.7,2.6,0,2.6,2v18.3
			c0,1.7,0.3,2.9-0.5,3.3c-0.8,0.4-2.1,0.6-2,1c0.1,0.4,0.5,0.3,0.8,0.3c1.2,0,2.9-0.2,4.2-0.2c2.3-0.1,4.7,0.1,7,0.1
			c1.4,0,1.7-0.3,2.7-1.6l0,0c1.3,1.2,3,1.8,4.7,1.7c3.9,0,6.8-3.6,6.8-8.2C576.3,11.8,571.9,10.4,569.5,10.4z M569.9,25.9
			c-3.7,0-5.1-4.5-5.1-8.3c0-3.2,1.3-6.2,4.3-6.2c3.7,0,5.1,4,5.1,7.9C574.2,24.1,572.5,25.9,569.9,25.9z"/>
		<path class="st0" d="M531,13.2c-0.9-0.4-2.2-1.3-2.9-1.6c-2.9-1.7-4-2.8-4.1-4.3c0-2.2,1.8-4.1,4-4.1c0.1,0,0.2,0,0.3,0
			c2.4,0,4.3,1.4,5.1,4.5c0.1,0.3,0.4,1.1,0.7,1.1c0.3,0,0.3-0.3,0.3-0.5l-0.4-4.9c0-0.4-0.2-0.5-0.3-0.5s-0.4,0.4-0.7,0.4
			c-1.4-0.9-3-1.4-4.6-1.3c-0.2,0-0.3,0-0.5,0c-3.2,0-6.2,2.1-6.1,6.5c0.1,4.1,4.7,6.4,7.1,8c1.8,1.1,3.7,2.8,3.7,4.8
			c-0.1,3-2,4.9-4.4,4.8c-5.6-0.1-4.8-7.4-5.8-7.4c-0.7,0-0.5,1.8-0.6,2.8c-0.1,1.5-0.1,3.1,0.2,4.6c0.1,0.1,0.3,0,0.9,0
			c1.1,0,2.4,1.3,5.6,1.3c3.6,0,6.5-3.3,6.5-7.6C535.2,17.2,534.5,15.5,531,13.2z"/>
		<path class="st0" d="M593.7,9.2c0.4,0,1.3-1.4,1.3-1.9s-0.9-1.9-1.3-1.9s-1.3,1.5-1.3,1.9S593.3,9.2,593.7,9.2z"/>
		<path class="st0" d="M596.9,26c-0.6,0-2-0.3-2-1.6V10.9c0-0.4-0.2-0.6-0.4-0.6c-0.7,0-1.2,1.3-3.2,2c-0.2,0-0.4,0.1-0.4,0.3
			c0,0.8,1.8-0.7,1.7,2.1v8.8c0.1,2.3-1.2,2.5-1.8,2.5c-0.7,0-0.8,0.1-0.8,0.4c0,0.3,0.6,0.4,1.7,0.4c0.3,0,1.2-0.1,2.2-0.1
			c1.3,0,2.3,0.2,2.9,0.2C597.2,26.8,597.7,25.8,596.9,26z"/>
		<path class="st0" d="M604.1,17.6c-0.6-0.3-1.5-0.8-2-1.1c-2-1.1-2.8-1.8-2.8-2.8c-0.1-1.3,0.9-2.4,2.2-2.5c0.1,0,0.3,0,0.4,0
			c3.1,0,3.5,3.4,3.8,3.4c0.3,0,0.3-0.5,0.3-1.5c0-0.6,0-1.2-0.2-1.8c-0.4-0.6-2.6-0.9-3.1-0.9h-1.1c-2.2-0.2-4,1.5-4.2,3.6
			c0,0.2,0,0.4,0,0.7c0.1,2.7,3.2,4.2,4.9,5.2c1.3,0.7,2.8,1.4,2.7,3.1c0.1,1.7-1.3,3.1-2.9,3.1c-0.1,0-0.2,0-0.2,0
			c-3.8,0-3.3-4.8-4-4.8c-0.5,0-0.4,1.2-0.4,1.8c-0.1,1-0.1,2,0.1,3c0,0.1,0.2,0,0.6,0c1.2,0.4,2.5,0.7,3.9,0.8
			c2.7-0.1,4.7-2.4,4.7-5C607,20.2,606.5,19.1,604.1,17.6z"/>
		<path class="st0" d="M545.1,24.5c-0.8,0.6-1.8,1-2.8,0.9c-1.3,0-2.1-0.8-2.1-2.4V12.3h4.1c0.3,0,0.8-1.7,0.8-1.8s0.1-0.4,0.1-0.5
			c0-0.2-0.2-0.4-0.4,0c-0.3,0.4-0.7,0.7-1.2,0.7h-3.4c0-2.9,0-3.7-0.4-3.7S539.4,7,539,8.3c-0.7,2.2-3,3.1-3.8,3.6
			C535,12,535,12,535,12.2c0,0.1,0.9,0.2,2.8,0.2v9.8c0,4.2,2,4.9,3.5,4.9c1.6,0,3.1-0.8,4-2.2C545.3,24.5,545.3,24.5,545.1,24.5z"
			/>
		<path class="st0" d="M228.5,23.2c-0.7,0-1.7,2-4.4,2c-1.9,0-5.1-1.8-5.1-8.1h8.4c0.7,0,1.1,0,1.1-0.6c0-1.5-1.7-6-5.6-6
			c-3.9,0-6.2,4-6.2,8.9c0,2.5,1.6,7.7,6.3,7.7c2.8,0,5.6-2.7,5.6-3.6C228.6,23.3,228.6,23.2,228.5,23.2z M222.3,11.3
			c2,0.3,3.5,2,3.5,4c0,0.6-0.2,0.8-0.6,0.8H219C219,14,220.4,11.3,222.3,11.3z"/>
		<path class="st0" d="M183.9,2.4c0.1-0.2-0.3-0.3-0.4-0.3c-0.5,0-1.7,0.1-2.2,0.1c-1.1,0-2-0.1-3.1-0.1c-0.1,0-0.6,0-0.6,0.2
			c0,0.8,2.6-0.1,2.6,3.1v12.8c0,3.8-1.2,7.8-6.4,7.8c-3.8,0-5.8-2.3-5.8-7.5v-14c0-2.3,1.8-1.8,1.8-2.3c0-0.5-1.6-0.2-1.7-0.2
			c-0.9,0-1.5,0.1-2.4,0.1s-1.7-0.1-2.4-0.1c-0.1,0-0.6,0-0.7,0.2C162.4,3,165,2.6,165,4.5v13.2c0,4.9,1.4,9.8,8.7,9.7
			c8.7-0.1,8.5-7.9,8.5-9.5V5.6C182.2,2.6,183.6,2.9,183.9,2.4z"/>
		<path class="st0" d="M218.1,11.2c0.2-0.3,0.3-0.6-0.7-0.6c-0.5,0-0.9,0.1-1.5,0.1s-0.8,0-1.5,0s-1,0-1,0.3c0.1,0.7,1.9,0,1.6,2.2
			c-0.2,1.7-0.7,3.4-1.4,4.9l-2.1,5.6l-3.1-9.3c-0.2-0.6-0.4-1.3-0.6-1.9c0-1.2,1.4-0.9,1.7-1.4c0.3-0.5-0.2-0.5-0.6-0.5
			s-0.8,0.1-2,0.2c-0.7,0.1-1.4,0.1-2.1,0c-1.1-0.2-1,0.4-0.6,0.6c0.4,0.2,0.5,0,1.1,1.6l4.7,13.4c0.1,0.3,0.2,0.9,0.6,0.9
			c0.4,0,0.5-0.5,1.1-2.1c0,0,4.5-12.7,4.8-13.1C217.4,11.2,217.9,11.4,218.1,11.2z"/>
		<path class="st0" d="M235.6,10.6c-1.3,0-2.2,1.5-2.8,2.6l0,0v-2.3c0-0.4-0.2-0.6-0.4-0.6c-0.5,0-0.9,1-3.5,1.6
			c-0.2,0-0.6,0.1-0.6,0.3c0,0.8,2.2-0.2,2.2,2.3v9.8c0,1.5-1.6,1.4-1.6,2.1c0,0.2,0.1,0.3,0.3,0.3c0.9-0.1,1.9-0.2,2.8-0.2
			c1.7,0,2.5,0.2,2.9,0.2c0.4,0,0.5-0.1,0.5-0.4c0-1.2-2.7,0.6-2.7-2.8v-8.4c0-0.5,0.7-2.2,2-2.2s1.2,0.9,1.8,0.9
			c0.4,0,1.1-1.1,1.1-1.7S236.2,10.6,235.6,10.6z"/>
		<path class="st0" d="M275,10.7c-0.3,0-1.2,0-1.9,0s-1.4-0.1-1.8-0.1c-0.4,0-1.2,0-1,0.4s2.1,0.3,2.1,2.4c0,0.7-0.2,1.4-0.4,2.1
			l-2.5,8l-3.5-9.9c-0.1-0.3-0.2-0.6-0.2-0.9c0-1.6,1.9-1.4,2-1.7c0.1-0.3-0.3-0.5-0.8-0.5h-7.8c0-2.9,0-3.7-0.4-3.7
			c-0.4,0-0.4,0.1-0.8,1.4c-0.7,2.2-3,3.1-3.8,3.6c-0.2,0.1-0.2,0.1-0.2,0.2c0,0.1,0.9,0.2,2.8,0.2V22c0,4.2,2,4.9,3.5,4.9
			c1.6,0.1,3.1-0.8,4-2.2c0-0.3,0-0.4-0.2-0.3c-0.8,0.6-1.8,1-2.8,0.9c-1.3,0-2-0.8-2.1-2.4V12.3h3.9c0.1,0.1,0.1,0.2,0.1,0.2
			l3.6,10.2c0.3,0.8,0.6,1.7,0.8,2.6c0.1,0.6,0.2,1.2,0.2,1.8c-0.4,1.5-1.3,2.4-2.8,5.3c-0.1,0.3,2.1,0,2.2,0s0.2-0.1,0.4-0.5
			l1.6-4.8l4.5-13.7c0.7-2.4,1.7-2,1.9-2.3C275.6,10.8,275.5,10.7,275,10.7z"/>
		<polygon class="st0" points="269.3,26.9 269.2,27.1 269.2,27.2 		"/>
		<path class="st0" d="M251.4,9.2c0.4,0,1.3-1.4,1.3-1.9s-0.9-1.9-1.3-1.9c-0.4,0-1.3,1.5-1.3,1.9S251,9.2,251.4,9.2z"/>
		<path class="st0" d="M254.6,26c-0.6,0-2-0.3-2-1.6V10.9c0-0.4-0.2-0.6-0.4-0.6c-0.7,0-1.2,1.3-3.2,2c-0.2,0-0.4,0.1-0.4,0.3
			c0,0.8,1.8-0.7,1.7,2.1v8.8c0.1,2.3-1.2,2.5-1.8,2.5c-1,0-0.8,0.1-0.8,0.4c0,0.3,0.7,0.4,1.7,0.4c0.3,0,1.2-0.1,2.2-0.1
			c1.3,0,2.3,0.2,2.9,0.2C254.9,26.8,255.4,25.8,254.6,26z"/>
		<path class="st0" d="M423.6,23.2c-0.7,0-1.7,2-4.4,2c-1.9,0-5.1-1.8-5.1-8.1h8.4c0.7,0,1.1,0,1.1-0.6c0-1.5-1.7-6-5.6-6
			s-6.2,4-6.2,8.9c0,2.5,1.6,7.7,6.3,7.7c2.8,0,5.6-2.7,5.6-3.6C423.7,23.3,423.7,23.2,423.6,23.2z M417.4,11.3c2,0.2,3.5,2,3.5,4
			c0,0.6-0.2,0.8-0.6,0.8h-6.2C414.1,14,415.4,11.3,417.4,11.3z"/>
		<path class="st0" d="M493.1,23.2c-0.7,0-1.7,2-4.4,2c-1.9,0-5.1-1.8-5.1-8.1h8.4c0.7,0,1.1,0,1.1-0.6c0-1.5-1.7-6-5.6-6
			s-6.2,4-6.2,8.9c0,2.5,1.6,7.7,6.3,7.7c2.8,0,5.6-2.7,5.6-3.6C493.2,23.3,493.2,23.2,493.1,23.2z M487,11.3c2,0.2,3.5,2,3.5,4
			c0,0.6-0.2,0.8-0.6,0.8h-6.2C483.6,14,485,11.3,487,11.3z"/>
		<path class="st0" d="M443.9,9.2c0.4,0,1.3-1.4,1.3-1.9s-0.9-1.9-1.3-1.9c-0.4,0-1.3,1.5-1.3,1.9S443.6,9.2,443.9,9.2z"/>
		<path class="st0" d="M447.1,26c-0.6,0-2-0.3-2-1.6V10.9c0-0.4-0.2-0.6-0.4-0.6c-0.7,0-1.2,1.3-3.2,2c-0.2,0-0.4,0.1-0.4,0.3
			c0,0.8,1.8-0.7,1.7,2.1v8.8c0.1,2.3-1.2,2.5-1.8,2.5c-0.4,0-0.8,0.1-0.8,0.4c0,0.3,0.6,0.4,1.7,0.4c0.3,0,1.2-0.1,2.2-0.1
			c1.3,0,2.3,0.2,2.9,0.2C447.4,26.8,447.9,25.8,447.1,26z"/>
		<path class="st0" d="M201.8,9.2c0.4,0,1.3-1.4,1.3-1.9s-0.9-1.9-1.3-1.9c-0.4,0-1.3,1.5-1.3,1.9S201.4,9.2,201.8,9.2z"/>
		<path class="st0" d="M205,26c-0.6,0-2-0.3-2-1.6V10.9c0-0.4-0.2-0.6-0.4-0.6c-0.7,0-1.2,1.3-3.2,2c-0.2,0-0.5,0.1-0.5,0.3
			c0,0.8,1.8-0.7,1.7,2.1v8.8c0,2.3-1.2,2.5-1.8,2.5h-0.2c-0.7-0.1-1.3-0.4-1.3-2.2v-6.2c0-2.8-0.9-7-5.1-7c-3.1,0-4.6,2.9-4.6,2.4
			v-2.1c0-0.4-0.2-0.6-0.4-0.6c-0.7,0-1.3,1.2-3.7,2c-0.2,0-0.6,0-0.6,0.3c0,0.8,2.5-1,2.4,2.1v9.3c0,2.4-1.6,1.9-2,2.5
			c-0.2,0.3,0.3,0.4,0.7,0.4c0.4,0,1-0.2,2.7-0.2s2.5,0.2,3,0.2s1-0.2,0.7-0.5c-0.3-0.3-2.8,0.1-2.8-2.5v-8.6c0.4-1.7,1.9-3,3.7-2.9
			c2.5,0,3.7,2.8,3.7,4.7v7c0,2.8-1,1.9-1.4,2.4c-0.2,0.3,0.2,0.4,0.6,0.4s1.1-0.2,2.3-0.2c1.5,0,2.2,0.1,2.6,0.1h0.6
			c0.3,0,1.2-0.1,2.2-0.1c1.3,0,2.3,0.2,2.9,0.2C205.3,26.8,205.8,25.8,205,26z"/>
		<path class="st0" d="M244.6,17.6c-0.6-0.3-1.5-0.8-2-1.1c-2-1.1-2.8-1.8-2.8-2.8c-0.1-1.3,0.9-2.4,2.2-2.5c0.2,0,0.3,0,0.5,0
			c3.1,0,3.5,3.4,3.8,3.4s0.3-0.4,0.3-1.5c0-0.6,0-1.2-0.2-1.8c-0.4-0.6-2.6-0.9-3.1-0.9h-0.7h-0.3c-2.2-0.2-4,1.4-4.2,3.6
			c0,0.2,0,0.5,0,0.7c0,2.7,3.2,4.2,4.9,5.2c1.2,0.7,2.7,1.4,2.7,3.1c0.1,1.7-1.3,3.1-2.9,3.1c-0.1,0-0.2,0-0.2,0
			c-3.8-0.1-3.3-4.9-4-4.9c-0.5,0-0.4,1.2-0.4,1.8c-0.1,1-0.1,2,0.1,3c0,0.1,0.2,0,0.6,0c1.2,0.4,2.5,0.7,3.9,0.8
			c2.7-0.1,4.7-2.4,4.7-5.1C247.5,20.2,247,19.1,244.6,17.6z"/>
		<path class="st0" d="M321.1,26.8c0,0,0.4,0,0.3-0.4c-0.1-0.4-0.6-0.4-1.2-0.4c-0.8-0.1-1.4-0.5-1.4-1.7V18c0-3.2-1.2-7.4-5.2-7.4
			c-1.8,0.1-3.4,0.9-4.5,2.3V2.2c0-0.4-0.2-0.6-0.4-0.6c-0.5,0-1.3,1.4-3.6,2c-0.2,0-0.7,0.1-0.7,0.3c0,0.8,2.4-0.4,2.4,2.1v18.3
			c0,1.8-1.6,1.6-1.9,2.2c-0.1,0.1,0,0.3,0.2,0.4c0,0,0.1,0,0.1,0c0.5,0,1.9-0.2,2.9-0.2s2.5,0.2,3.2,0.2c0.4,0,0.5-0.1,0.5-0.5
			c-0.3-0.6-2.8,0.3-2.8-2.9v-7.9c0.3-1.8,1.8-3.3,3.7-3.4c1.1,0,3.8,0.9,3.8,5.5v6.8c0,1.4-1.4,1.5-1.5,1.9s0.2,0.4,0.5,0.4
			c0.3,0,1.4-0.2,2.6-0.2c0.7,0,1.3,0,1.8,0.1C320.2,26.8,320.6,26.8,321.1,26.8"/>
		<path class="st0" d="M359.4,24.1c0.3,0.4,0.6,0.8,0.9,1.1c1.3,1.2,3,1.8,4.7,1.7c3.9,0,6.8-3.6,6.8-8.2c0-7-4.4-8.4-6.8-8.4
			c-3.9,0-7,4-7,8.6C358,20.8,358.5,22.6,359.4,24.1 M365.4,25.9c-3.7,0-5.1-4.5-5.1-8.3c0-3.2,1.3-6.2,4.3-6.2c3.7,0,5.1,4,5.1,7.9
			C369.7,24.1,368,25.9,365.4,25.9L365.4,25.9z"/>
		<path class="st0" d="M336.4,24.1c0.3,0.4,0.6,0.8,1,1.1c1.3,1.2,3,1.8,4.7,1.7c3.9,0,6.8-3.6,6.8-8.2c0-7-4.4-8.4-6.8-8.4
			c-3.9,0-7,4-7,8.6C335,20.8,335.5,22.6,336.4,24.1 M342.4,25.9c-3.7,0-5.1-4.5-5.1-8.3c0-3.2,1.3-6.2,4.3-6.2c3.7,0,5.1,4,5.1,7.9
			C346.7,24.1,345,25.9,342.4,25.9L342.4,25.9z"/>
		<path class="st0" d="M321.7,24.1c0.3,0.4,0.6,0.8,0.9,1.1c1.3,1.2,3,1.8,4.7,1.7c3.9,0,6.8-3.6,6.8-8.2c0-7-4.4-8.4-6.8-8.4
			c-3.9,0-7,4-7,8.6C320.3,20.8,320.8,22.6,321.7,24.1 M327.7,25.9c-3.7,0-5.1-4.5-5.1-8.3c0-3.2,1.3-6.2,4.3-6.2
			c3.7,0,5.1,4,5.1,7.9C332,24.1,330.3,25.9,327.7,25.9L327.7,25.9z"/>
		<path class="st0" d="M292.6,19c0-4.7,3.1-8.6,7.4-8.6c1.7,0,4,0.5,4.2,1.4c0.2,0.9,0,1.7,0,2.2s-0.1,0.8-0.3,0.8s-0.7-0.7-0.8-0.9
			c-0.9-1.5-2.5-2.3-4.2-2.3c-2.9,0-3.7,3.3-3.7,6.1c0,4.1,1.9,7.5,5.7,7.5c2.7,0,4.2-2.2,4.7-2.2c0.1,0,0.3,0.1,0.3,0.2
			c0,0.6-2,3.9-6.7,3.9C295.2,27,292.6,23.2,292.6,19z"/>
		<path class="st0" d="M447,19c0-4.7,3.1-8.6,7.4-8.6c1.7,0,4,0.5,4.2,1.4c0.2,0.9,0,1.7,0,2.2s-0.1,0.8-0.3,0.8
			c-0.2,0-0.7-0.7-0.8-0.9c-0.9-1.5-2.5-2.3-4.2-2.3c-2.9,0-3.7,3.3-3.7,6.1c0,4.1,1.9,7.5,5.8,7.5c2.7,0,4.2-2.2,4.7-2.2
			c0.1,0,0.3,0.1,0.3,0.2c0,0.6-2.1,3.9-6.7,3.9C449.6,27,447,23.2,447,19z"/>
		<path class="st0" d="M352.3,12.2V2.4c0-0.4-0.2-0.6-0.4-0.6c-0.5,0-1.2,1.4-3.6,1.9c-0.2,0-0.8,0.1-0.8,0.3c0,0.8,2.5-0.4,2.6,2.2
			V24c0,2-1.7,1.7-2,2.3c-0.1,0.2,0,0.3,0.2,0.4c0,0,0.1,0,0.1,0c0.5,0,2-0.2,3-0.2s2.5,0.4,3.2,0.4c0.4,0,0.6-0.1,0.6-0.6
			c-0.3-0.7-2.9,0.4-2.9-3V15"/>
		<path class="st0" d="M380.1,2.3c-2.3-0.1-4.4,1.2-5.3,3.3c-0.7,1.6-1.1,3.3-1.1,5h-1.8c-0.3,0-1.5,1.7-1.1,1.7h3v12.1
			c0,1.8-1.9,1.4-1.9,2.2c0,0.3,0.4,0.2,0.6,0.2c1-0.2,1.9-0.3,2.9-0.3c0.9,0,1.7,0.1,2.6,0.3c0.3,0,0.8,0.1,0.8-0.3
			c0-0.9-2.8,0.1-2.8-2.4V12.3h3.6c0.2,0,0.3-0.3,0.4-0.5c0.3-0.5,0.5-1,0.8-1.5c0-0.1,0-0.5-0.2-0.5c-0.2,0-0.5,0.9-1.5,0.9h-3
			c0-2.1,0-2.6,0-3.7c0.1-1.8,0.9-2.9,2.4-3c2.5-0.1,2.1,1.7,2.7,1.7c0.5,0,0.6-1.7,0.6-2.4S380.6,2.3,380.1,2.3z"/>
		<path class="st0" d="M410.1,23.7c0.2,3,2.6,1.7,2.6,2.9c0,0.4-0.4,0.4-0.8,0.4c-0.6,0-1.8-0.1-3.2-0.1c-1,0-2.1,0.1-2.9,0.1
			c-0.3,0-0.4-0.2-0.4-0.3c0-1.1,2.1-0.3,2.1-2.9l-0.3-13.9c0-0.9-0.2-1.4-0.4-1.4c-0.2,0-0.5,0.3-0.9,1.1l-7,15.1
			c-0.2,0.3-0.7,1.8-1,1.8s-0.6-0.8-0.7-1l-7.1-16c-0.1-0.3-0.3-0.4-0.4-0.4s-0.2,0.2-0.2,0.5l-0.4,12.6c-0.2,4.7,3,3.2,3,4.5
			c0,0.4-0.4,0.4-0.8,0.4c-0.5,0-1.9-0.1-2.9-0.1c-1.7,0-2.3,0.1-2.9,0.1c-0.2,0-0.3-0.2-0.3-0.4c0-1.2,2.1,0.3,2.4-3.5
			c0.4-5.8,0.8-9.6,0.8-13.4c0-8.4-3.2-6.4-3.2-7.6c0-0.3,0.3-0.4,0.6-0.4c0.6,0,1.2,0.1,1.8,0.1c0.6,0,1.2-0.1,1.8-0.1
			c0.6,0,0.5,0.6,0.7,1l8,18.1c0.4,0.8,0.5,1.1,0.7,1.1c0.2,0,0.5-0.8,1-1.9l8-17.1c0.2-0.4,0.5-1.3,0.9-1.2c0.4,0,1.4,0.1,1.6,0.1
			c0.8,0,1.1-0.1,1.6-0.1c0.2,0,0.3,0.2,0.3,0.4c0,1.1-2.7-0.4-2.6,3.9L410.1,23.7z"/>
		<path class="st0" d="M435.9,6.2c0-2.3-2.8-1.3-2.8-2.1c0-0.2,0.1-0.4,0.3-0.4c2.8-0.7,3.6-2.1,4.5-2.1c0.2,0,0.4,0.2,0.4,0.6v22.5
			c0,0.5,0.1,0.5,1.3,0.5c0.3,0,0.6,0,0.6,0.3c0,0.3-0.6,0.8-1.6,0.8c-0.8,0.1-1.5,0.4-2.2,0.7c-0.3,0-0.4-0.3-0.4-0.6v-2.1l0,0
			c-1.2,1.6-3.2,2.6-5.2,2.7c-3.9,0-6.3-3.8-6.3-7.7c0-4.5,3-8.9,7.4-8.9c1.5,0,3,0.5,4.2,1.4L435.9,6.2z M435.9,15.7
			c0-2.4-1.9-4.4-4.3-4.4c-0.2,0-0.3,0-0.5,0c-3.3,0-4.8,3.3-4.8,6.5s2.1,7.7,5.5,7.7c2.9,0,4-1.9,4-3.3L435.9,15.7z"/>
		<path class="st1" d="M12.7,1.5L12.7,1.5C8.4,1.4,4.2,0.9,0,0v21.2c0,0.3,0,0.6,0,0.6l0,0l0,0c0,0.9,0.3,1.8,0.9,2.4
			c0.5,0.5,1,0.9,1.7,1.3l0.7,0.3L3.8,26l0,0c0.2,0,0.7,0.3,0.9,0.3l8,3l0,0l8-3l0.8-0.3l0,0l0.6-0.3l0.7-0.3
			c0.6-0.3,1.2-0.8,1.7-1.3c0.6-0.7,0.9-1.5,0.9-2.4l0,0l0,0c0,0,0-0.2,0-0.6V0C21.2,0.9,16.9,1.4,12.7,1.5z"/>
		<path class="st2" d="M12.7,2.8L12.7,2.8C8.8,2.7,4.9,2.2,1.1,1.4v5.4c3.8,0.8,7.7,1.3,11.6,1.4l0,0c3.9-0.1,7.8-0.6,11.6-1.4V1.4
			C20.5,2.2,16.6,2.7,12.7,2.8z"/>
		<path class="st3" d="M12.7,8.1L12.7,8.1C8.8,8,4.9,7.6,1.1,6.7v12c3.8,0.8,7.7,1.3,11.6,1.4l0,0c3.9-0.1,7.8-0.6,11.6-1.4v-12
			C20.5,7.6,16.6,8.1,12.7,8.1z"/>
		<path class="st2" d="M1.1,21.3L1.1,21.3c0,0.8,0.3,1.6,0.8,2.2c0.4,0.5,1,0.9,1.5,1.2L4.1,25l0.5,0.2l0,0l0.8,0.3l7.3,2.8l0,0
			l7.3-2.8l0.8-0.3l0,0l0.5-0.2c0.2-0.1,0.4-0.2,0.6-0.3c0.6-0.3,1.1-0.7,1.5-1.2c0.5-0.6,0.8-1.4,0.9-2.2l0,0c0,0,0-0.2,0-0.5v-1.9
			c-3.8,0.8-7.7,1.3-11.6,1.4l0,0c-3.9-0.1-7.8-0.6-11.6-1.4L1.1,21.3L1.1,21.3z"/>
		<polygon class="st1" points="5.2,2.6 5.7,4.3 7.4,4.3 6.1,5.3 6.6,6.9 5.2,6 3.8,6.9 4.3,5.3 2.9,4.3 4.6,4.3 		"/>
		<polygon class="st1" points="20.2,2.6 20.7,4.3 22.4,4.3 21.1,5.3 21.6,6.9 20.2,6 18.8,6.9 19.3,5.3 17.9,4.3 19.6,4.3 		"/>
		<polygon class="st1" points="12.7,3.3 13.2,4.9 14.9,4.9 13.6,5.9 14.1,7.6 12.7,6.6 11.3,7.6 11.8,5.9 10.4,4.9 12.1,4.9 		"/>
		<polygon class="st1" points="12.7,20.6 12.1,21.2 12.1,21.2 12.1,22.8 12.1,22.8 12.1,22.8 12.1,22.8 12.1,22.8 12.4,23.7 
			12.4,25.1 13,25.1 13,23.7 13.3,22.8 13.3,22.8 13.3,21.2 		"/>
		<polygon class="st1" points="13,26.4 13,25.6 12.4,25.6 12.4,26.4 12.1,27 12.7,27.7 13.3,27 		"/>
		<polygon class="st1" points="13.4,25.6 13.4,26.2 13.8,26.6 14.5,26.1 14.5,25.6 		"/>
		<polygon class="st1" points="14.1,22.9 13.4,23.7 13.4,25.1 14,25.1 14,24.2 14.6,23.6 14.6,23.6 15.3,24.1 15.8,23.6 15.8,22.9 
					"/>
		<polygon class="st1" points="12,25.6 12,26.2 11.6,26.6 10.9,26.1 10.9,25.6 		"/>
		<polygon class="st1" points="11.2,22.9 12,23.7 12,25.1 11.4,25.1 11.4,24.2 10.8,23.6 10.8,23.6 10.1,24.1 9.6,23.6 9.6,22.9 		
			"/>
		<polygon class="st2" points="18.2,10 18.2,16.9 13.6,16.9 13.3,17.2 12.7,17.7 12.1,17.2 11.8,16.9 7.2,16.9 7.2,10 6.2,10.8 
			6.2,17.9 11.6,17.9 12.1,18.3 12.7,18.8 13.3,18.3 13.7,17.9 19.2,17.9 19.2,10.8 		"/>
		<polygon class="st2" points="13.4,9.5 13.3,9.6 12.7,10.1 12.1,9.6 11.9,9.5 8.1,9.5 8.1,16 11.9,16 12.2,16.2 12.7,16.6 
			13.1,16.2 13.4,16 17.2,16 17.2,9.5 		"/>
		<path class="st2" d="M20.2,11.5v4.4c1.2-0.2,2.6-0.4,4.1-0.7v-4.4C22.8,11.1,21.4,11.3,20.2,11.5z"/>
		<path class="st2" d="M5.2,11.5c-1.3-0.2-2.6-0.4-4.1-0.7v4.4c1.5,0.3,2.8,0.5,4.1,0.7V11.5z"/>
		<polygon class="st1" points="20.2,20 19.8,20.4 19.8,20.4 19.8,21.6 19.8,21.6 19.8,21.6 19.8,21.6 19.8,21.6 20,22.2 20,23.2 
			20.4,23.2 20.4,22.2 20.6,21.6 20.6,21.6 20.6,20.4 		"/>
		<polygon class="st1" points="20.4,24.1 20.4,23.5 20,23.5 20,24.1 19.8,24.5 20.2,25 20.6,24.5 		"/>
		<polygon class="st1" points="20.7,23.5 20.7,23.9 21,24.2 21.4,23.9 21.4,23.5 		"/>
		<polygon class="st1" points="21.2,21.6 20.7,22.2 20.7,23.2 21.1,23.2 21.1,22.6 21.5,22.1 21.5,22.1 22,22.5 22.3,22.1 
			22.3,21.6 		"/>
		<polygon class="st1" points="19.7,23.5 19.7,23.9 19.4,24.2 18.9,23.9 18.9,23.5 		"/>
		<polygon class="st1" points="19.2,21.6 19.7,22.2 19.7,23.2 19.3,23.2 19.3,22.6 18.9,22.1 18.9,22.1 18.4,22.5 18,22.1 18,21.6 
					"/>
		<polygon class="st1" points="5.2,20 4.8,20.4 4.8,20.4 4.8,21.6 4.8,21.6 4.8,21.6 4.8,21.6 4.8,21.6 5,22.2 5,23.2 5.4,23.2 
			5.4,22.2 5.6,21.6 5.6,21.6 5.6,20.4 		"/>
		<polygon class="st1" points="5.4,24.1 5.4,23.5 5,23.5 5,24.1 4.8,24.5 5.2,25 5.6,24.5 		"/>
		<polygon class="st1" points="5.7,23.5 5.7,23.9 6,24.2 6.4,23.9 6.4,23.5 		"/>
		<polygon class="st1" points="6.2,21.6 5.7,22.2 5.7,23.2 6.1,23.2 6.1,22.6 6.5,22.1 6.5,22.1 7,22.5 7.3,22.1 7.3,21.6 		"/>
		<polygon class="st1" points="4.7,23.5 4.7,23.9 4.4,24.2 3.9,23.9 3.9,23.5 		"/>
		<polygon class="st1" points="4.2,21.6 4.7,22.2 4.7,23.2 4.3,23.2 4.3,22.6 3.9,22.1 3.9,22.1 3.3,22.5 3,22.1 3,21.6 		"/>
	</g>
</g>
</svg>
